<?xml version="1.0" encoding="UTF-8"?>
<svg id="Layer_1" data-name="Layer 1" xmlns="http://www.w3.org/2000/svg" width="139.88mm" height="39.13mm" viewBox="0 0 396.51 110.91">
  <defs>
    <style>
      .cls-1 {
        isolation: isolate;
      }

      .cls-2 {
        fill: #fff;
        stroke-width: 0px;
      }
    </style>
  </defs>
  <g>
    <path class="cls-2" d="m22.3,65.4c2.13-3.71,4.11-7.16,6.1-10.6,6.83-11.83,13.69-23.65,20.5-35.48,1.54-2.67,3.47-4.88,6.34-6.15,4.91-2.18,10.44-1.08,14.25,2.83,3.69,3.79,4.67,9.48,2.18,14.35-1.93,3.78-4.16,7.41-6.28,11.09-4.11,7.15-8.3,14.26-12.33,21.45-1.02,1.81-2.18,2.6-4.32,2.57-8.65-.11-17.31-.05-26.44-.05h0Zm33.61-26.33c-.02-2.15-1.87-3.92-4.02-3.84-2.03.07-3.78,1.87-3.77,3.88,0,1.97,1.82,3.79,3.82,3.85,2.17.06,3.99-1.73,3.97-3.89Zm8.29-14.42c.01-2.13-1.63-3.82-3.76-3.87-2.12-.05-3.84,1.59-3.91,3.71-.07,2.2,1.71,4.03,3.89,4,2.11-.03,3.77-1.72,3.78-3.85h0Zm-20.42,25.07c-2.15-.05-3.86,1.54-3.94,3.65-.08,2.19,1.68,4.04,3.85,4.03,2.11,0,3.79-1.67,3.81-3.81.03-2.13-1.6-3.83-3.73-3.88h0Z"/>
    <path class="cls-2" d="m80.65,95.81c-.99.08-1.79.19-2.58.19-16.82,0-33.64.03-50.47,0-7.02-.02-11.99-3.69-13.38-9.7-1.73-7.5,3.78-15.31,11.55-15.51,12.9-.32,25.81-.16,38.72-.04.93,0,2.18,1.1,2.73,2.02,4.47,7.5,8.81,15.08,13.43,23.05h0Zm-33.32-12.5c0-2.15-1.62-3.78-3.77-3.81-2.27-.03-3.94,1.67-3.88,3.94.06,2.16,1.7,3.72,3.89,3.69,2.16-.03,3.77-1.66,3.76-3.82Zm-16.75.04c0-2.21-1.53-3.81-3.69-3.85-2.25-.04-3.96,1.66-3.91,3.9.04,2.15,1.68,3.74,3.84,3.73,2.19-.01,3.75-1.58,3.76-3.78Zm29.66,3.79c2.13-.04,3.77-1.7,3.77-3.81,0-2.22-1.77-3.9-4.01-3.81-2.12.08-3.69,1.78-3.63,3.93.06,2.14,1.73,3.73,3.88,3.69h0Z"/>
    <path class="cls-2" d="m77.94,29.8c2.82,4.88,5.44,9.4,8.05,13.93,6.27,10.89,12.57,21.76,18.79,32.68,3.25,5.7,2.66,11.4-1.43,15.66-5.62,5.85-15.48,5.17-19.68-1.76-6.69-11.03-13.03-22.27-19.38-33.49-.46-.82-.18-2.44.34-3.36,3.18-5.75,6.54-11.41,9.8-17.11,1.15-2.01,2.2-4.09,3.51-6.55Zm-.64,28.4c2.21.04,4.05-1.72,4.01-3.84-.04-2.06-1.74-3.73-3.84-3.78-2.19-.05-4.02,1.71-4,3.85.02,2.04,1.74,3.73,3.83,3.77Zm16.67,28.96c2.16.03,3.87-1.57,3.95-3.67.09-2.21-1.66-3.99-3.9-3.96-2.12.03-3.82,1.7-3.83,3.79-.02,2.12,1.65,3.81,3.78,3.84Zm-8.33-22.12c-2.13.06-3.76,1.75-3.74,3.88.01,2.23,1.83,3.95,4.05,3.82,2.12-.12,3.67-1.85,3.6-4-.07-2.13-1.78-3.76-3.9-3.7h-.01Z"/>
  </g>
  <g id="MAKER_INFO" data-name="MAKER INFO" class="cls-1">
    <g class="cls-1">
      <path class="cls-2" d="m120.91,70.5c0-.22.08-.38.24-.49.16-.11.37-.2.62-.27.25-.07.45-.14.59-.22.9-.36,1.65-.9,2.24-1.62.59-.72.96-1.6,1.11-2.65.29-2.05.64-5.52,1.05-10.4.41-4.88.67-7.91.78-9.1l.22-2.48c.04-.22.05-.83.05-1.84,0-1.26-.47-2.14-1.4-2.65-1.01-.54-1.94-.92-2.81-1.13-.97-.25-1.46-.65-1.46-1.19,0-.58.47-.86,1.4-.86l4,.11c4.21.11,6.46.16,6.75.16.25,0,.51.11.78.32.27.22.44.43.51.65.61,1.69,1.12,3.01,1.51,3.94l7.78,18.31c.07.14.15.22.24.22s.15-.07.19-.22l7.07-17.01c.5-2.7.88-4.43,1.13-5.18.14-.47.45-.7.92-.7h2.43c1.08-.04,2.03-.09,2.86-.16s1.51-.13,2.05-.16c1.87-.18,3.28-.27,4.21-.27s1.4.29,1.4.86c0,.29-.1.5-.3.65-.2.14-.51.29-.94.43-.25.07-.48.16-.67.27-.2.11-.35.18-.46.22-1.15.54-1.95,1.12-2.4,1.75-.45.63-.64,1.59-.57,2.89.29,6.55.68,13.54,1.19,20.95l.16,2.21c.14,1.62,1.44,2.77,3.89,3.46.4.14.69.29.89.43.2.14.3.38.3.7,0,.25-.1.45-.3.59-.2.14-.44.22-.73.22l-4.54-.11-4.21-.11c-.65,0-1.94.04-3.89.11-1.44.11-2.84.16-4.21.16-.32,0-.59-.07-.81-.22-.22-.14-.32-.34-.32-.59,0-.61.4-1.01,1.19-1.19,1.4-.32,2.36-.71,2.86-1.16.5-.45.74-1.2.7-2.24-.14-2.38-.29-6.19-.43-11.45-.04-2.09-.13-4.73-.27-7.94,0-.18-.05-.27-.16-.27s-.22.13-.32.38l-9.83,24.35c-.18.47-.45.7-.81.7s-.65-.2-.86-.59c-.79-1.76-1.54-3.38-2.24-4.83-.7-1.46-1.32-2.78-1.86-3.97-3.2-6.69-5.53-11.82-6.97-15.39-.11-.25-.25-.38-.43-.38-.29,0-.47.29-.54.86-.11,1.87-.16,4.1-.16,6.7l.05,6.26c.04,1.26.05,2.99.05,5.18,0,1.01.32,1.8.97,2.38.65.58,1.69,1.04,3.13,1.4.97.25,1.46.63,1.46,1.13,0,.25-.13.45-.4.59-.27.14-.57.22-.89.22-1.08,0-2.16-.04-3.24-.11l-2.32-.05c-1.04,0-2.21.03-3.48.08-1.28.05-2.12.1-2.51.13-.83,0-1.24-.27-1.24-.81Z"/>
    </g>
    <g class="cls-1">
      <path class="cls-2" d="m171.58,70.42c-1.1-.99-1.65-2.19-1.65-3.59,0-1.22.39-2.27,1.16-3.13.77-.86,1.97-1.66,3.59-2.38l4.64-2.05c.72-.32,1.17-.61,1.35-.86.18-.25.27-.74.27-1.46l.05-2.97c.07-2.16-.65-3.24-2.16-3.24-.43,0-.88.1-1.35.3-.47.2-.81.42-1.03.67-.18.22-.27.56-.27,1.03,0,.25.02.53.05.84.04.31.05.59.05.84,0,.36-.63.82-1.89,1.38-1.26.56-2.32.84-3.19.84-.29,0-.53-.12-.73-.35-.2-.23-.3-.53-.3-.89,0-.58.2-1.13.59-1.67.4-.54,1.06-1.19,2-1.94,1.44-1.15,3.07-2.13,4.89-2.94,1.82-.81,3.34-1.21,4.56-1.21,2.05,0,3.68.66,4.89,1.97,1.21,1.31,1.79,3.07,1.75,5.27l-.27,10.48c-.04.83.1,1.54.4,2.13.31.59.69.89,1.16.89.65,0,1.22-.23,1.73-.7.11-.11.22-.16.32-.16.18,0,.33.06.46.19.13.13.19.28.19.46,0,.43-.36,1.01-1.08,1.73-1.37,1.37-2.93,2.05-4.7,2.05-1.12,0-2.09-.25-2.92-.76-.83-.5-1.6-1.3-2.32-2.38h-.11c-1.19,1.15-2.25,1.96-3.19,2.43-.94.47-1.93.7-2.97.7-1.58,0-2.93-.5-4.02-1.48Zm8.77-2.94c.22-.29.32-.7.32-1.24l.16-4.16c0-.5-.18-.76-.54-.76-.14,0-.32.05-.54.16-1.01.54-1.7,1.06-2.08,1.57s-.57,1.33-.57,2.48c0,.94.18,1.61.54,2.03.36.41.79.62,1.3.62.58,0,1.04-.23,1.4-.7Z"/>
    </g>
    <g class="cls-1">
      <path class="cls-2" d="m193.7,71.1c-.18-.14-.27-.34-.27-.59,0-.47.41-.84,1.24-1.13.11-.04.37-.13.78-.27.41-.14.72-.35.92-.62.2-.27.3-.66.3-1.16v-25.65c0-1.12-.13-2-.4-2.65-.27-.65-.82-1.06-1.65-1.24-.4-.07-.59-.36-.59-.86,0-.47.18-.74.54-.81,1.51-.29,4.07-1.1,7.67-2.43l1.13-.43c.32-.11.58-.16.76-.16.4,0,.59.24.59.7l-.11,1.24-.16,1.67.05,20.74c0,.47.16.7.49.7.18,0,.4-.09.65-.27,1.19-1.04,2.33-2.18,3.43-3.4,1.1-1.22,1.84-2.16,2.24-2.81.32-.5.49-.83.49-.97,0-.22-.15-.41-.46-.59-.31-.18-.75-.31-1.32-.38-.43-.07-.65-.29-.65-.65,0-.5.4-.76,1.19-.76h2.65c.9,0,2.24-.05,4.02-.16,1.78-.11,3.23-.22,4.35-.32.4,0,.59.22.59.65,0,.58-.42.95-1.24,1.13-1.4.32-3.04,1.03-4.91,2.11-2.27,1.22-4.12,2.56-5.56,4-.18.18-.27.38-.27.59,0,.14.05.28.16.4.11.13.18.21.22.24.68.9,1.46,1.98,2.32,3.24.22.29.8,1.1,1.75,2.43.95,1.33,1.97,2.61,3.05,3.83.54.61,1.25,1.21,2.13,1.78.88.58,1.65.99,2.29,1.24.07.04.25.1.54.19.29.09.51.21.68.35.16.14.24.31.24.49,0,.54-.4.81-1.19.81-1.76,0-4.16-.04-7.18-.11l-5.45-.05c-.36,0-.63-.07-.81-.22-.18-.14-.27-.34-.27-.59,0-.47.41-.85,1.24-1.13.47-.18.72-.43.76-.76,0-.22-.24-.65-.7-1.3l-4.91-7.18-.22-.11c-.22.07-.32.22-.32.43v7.07c0,.54.12.95.35,1.24.23.29.64.52,1.21.7.72.29,1.08.67,1.08,1.13,0,.25-.08.46-.24.62-.16.16-.39.24-.68.24-1.04,0-2.09-.05-3.13-.16-1.22-.07-2.12-.11-2.7-.11-.61,0-1.53.04-2.75.11-.97.11-2.02.16-3.13.16-.36,0-.63-.07-.81-.22Z"/>
    </g>
    <g class="cls-1">
      <path class="cls-2" d="m227.85,70.34c-1.57-1.04-2.8-2.47-3.7-4.27-.9-1.8-1.35-3.8-1.35-5.99s.54-4.35,1.62-6.26,2.55-3.42,4.4-4.54c1.85-1.12,3.88-1.67,6.08-1.67,1.51,0,2.91.34,4.18,1.03,1.28.68,2.29,1.6,3.05,2.75.76,1.15,1.13,2.43,1.13,3.83,0,.72-.14,1.25-.41,1.59-.27.34-.69.51-1.27.51h-10.69c-.5,0-.87.14-1.11.43s-.35.77-.35,1.46c0,1.98.63,3.64,1.89,4.97,1.26,1.33,2.88,2,4.86,2,.97,0,1.89-.19,2.75-.57s1.8-.93,2.81-1.65c.32-.25.58-.38.76-.38.4,0,.59.23.59.7,0,.32-.11.81-.32,1.46-.54,1.62-1.68,3.05-3.43,4.29-1.75,1.24-3.84,1.86-6.29,1.86-1.91,0-3.65-.52-5.21-1.57Zm5.91-15.39c.86,0,1.5-.02,1.92-.05.41-.04.78-.11,1.11-.22.14-.04.28-.22.41-.54.13-.32.19-.68.19-1.08,0-.94-.3-1.7-.89-2.29s-1.36-.89-2.29-.89c-1.08,0-2.05.45-2.92,1.35-.86.9-1.26,1.87-1.19,2.92,0,.25.07.45.22.59.14.14.34.22.59.22h2.86Z"/>
      <path class="cls-2" d="m245.92,71.07c-.22-.16-.32-.35-.32-.57,0-.5.41-.88,1.24-1.13.79-.25,1.32-.51,1.59-.78s.4-.69.4-1.27v-12.58c0-.76-.1-1.34-.3-1.75-.2-.41-.58-.71-1.16-.89-.25-.07-.44-.18-.57-.32-.13-.14-.19-.38-.19-.7,0-.54.23-.86.7-.97,1.3-.29,2.66-.67,4.1-1.13,1.44-.47,2.66-.94,3.67-1.4.68-.4,1.13-.59,1.35-.59.36,0,.54.22.54.65l-.05,1.62-.11,2.7c0,.36.07.54.22.54.97-1.33,2.07-2.48,3.29-3.46,1.22-.97,2.47-1.46,3.73-1.46,2.41,0,3.62.9,3.62,2.7,0,.94-.36,1.92-1.08,2.94-.72,1.03-1.48,1.54-2.27,1.54-.32,0-.68-.08-1.08-.24s-.79-.35-1.19-.57c-1.01-.5-1.69-.76-2.05-.76-1.04,0-1.86.39-2.46,1.16-.59.77-.89,2.13-.89,4.08v8.32c0,.76.21,1.31.62,1.67.41.36,1.14.7,2.19,1.03.79.22,1.19.58,1.19,1.08,0,.22-.08.41-.24.57-.16.16-.37.24-.62.24-1.19,0-2.41-.05-3.67-.16-1.58-.07-2.66-.11-3.24-.11s-1.55.04-2.92.11c-1.08.11-2.18.16-3.29.16-.29,0-.54-.08-.76-.24Z"/>
      <path class="cls-2" d="m282.2,71.07c-.22-.16-.32-.35-.32-.57,0-.61.34-1.01,1.03-1.19,1.4-.29,2.35-.66,2.83-1.11.49-.45.73-1.21.73-2.29v-24.52c0-1.15-.23-1.96-.7-2.43-.47-.47-1.42-.86-2.86-1.19-.68-.18-1.03-.58-1.03-1.19,0-.22.11-.41.32-.57.22-.16.43-.24.65-.24,1.33,0,2.74.05,4.21.16,1.94.07,3.24.11,3.89.11.68,0,2.03-.04,4.05-.11,2.09-.07,3.53-.11,4.32-.11.58,0,.86.27.86.81,0,.32-.08.57-.24.73s-.42.3-.78.41c-1.48.43-2.43.88-2.86,1.35-.43.47-.65,1.24-.65,2.32v24.41c0,1.01.23,1.74.7,2.19.47.45,1.4.87,2.81,1.27.36.11.62.24.78.41s.24.4.24.73c0,.54-.29.81-.86.81-.79,0-2.23-.04-4.32-.11-2.02-.07-3.37-.11-4.05-.11-.65,0-1.94.04-3.89.11-1.44.11-2.84.16-4.21.16-.22,0-.43-.08-.65-.24Z"/>
      <path class="cls-2" d="m302.43,71.07c-.24-.16-.35-.35-.35-.57,0-.47.41-.84,1.24-1.13.68-.22,1.19-.45,1.51-.7.32-.25.49-.7.49-1.35v-12.53c0-1.69-.54-2.63-1.62-2.81-.14-.04-.28-.14-.41-.32-.13-.18-.19-.41-.19-.7,0-.54.18-.86.54-.97,1.37-.32,2.84-.73,4.43-1.21,1.58-.49,2.88-.98,3.89-1.49.07-.04.23-.13.49-.27.25-.14.45-.22.59-.22.36,0,.54.23.54.7l-.11,1.13c-.11,1.19-.16,1.82-.16,1.89,0,.47.04.74.11.81,1.37-1.26,2.65-2.2,3.83-2.81,1.19-.61,2.56-.92,4.1-.92,1.98,0,3.6.7,4.86,2.11,1.26,1.4,1.89,3.29,1.89,5.67v11.99c0,.65.15,1.09.46,1.32.31.23.82.46,1.54.67.72.25,1.08.63,1.08,1.13,0,.22-.1.41-.3.57-.2.16-.41.24-.62.24-1.12,0-2.2-.05-3.24-.16-1.3-.07-2.23-.11-2.81-.11-.61,0-1.53.04-2.75.11-1.01.11-2.07.16-3.19.16-.22,0-.41-.08-.59-.24-.18-.16-.27-.35-.27-.57,0-.5.34-.88,1.03-1.13.68-.22,1.16-.44,1.43-.67.27-.23.41-.67.41-1.32v-10.64c0-1.33-.29-2.38-.86-3.13-.58-.76-1.33-1.13-2.27-1.13-.65,0-1.24.1-1.78.3-.54.2-1.13.51-1.78.94-.29.18-.43.5-.43.97v12.69c0,.65.13,1.08.41,1.3.27.22.75.45,1.43.7.68.25,1.03.63,1.03,1.13,0,.22-.09.41-.27.57-.18.16-.38.24-.59.24-1.08,0-2.11-.05-3.08-.16-1.22-.07-2.12-.11-2.7-.11s-1.55.04-2.92.11c-1.08.11-2.18.16-3.29.16-.25,0-.5-.08-.73-.24Z"/>
    </g>
    <g class="cls-1">
      <path class="cls-2" d="m333.42,71.07c-.23-.16-.35-.35-.35-.57,0-.47.32-.83.97-1.08,1.01-.32,1.64-.6,1.89-.84.25-.23.38-.66.38-1.27v-15.39c-1.12,0-2.05-.04-2.81-.11-.22-.04-.4-.25-.54-.65-.14-.4-.22-.76-.22-1.08,0-.25.18-.43.54-.54.68-.25,1.69-.67,3.02-1.24.25-3.56,1.12-6.49,2.62-8.78,1.49-2.29,3.29-3.94,5.4-4.97,2.11-1.03,4.2-1.54,6.29-1.54,2.56,0,4.4.35,5.54,1.05,1.13.7,1.7,1.83,1.7,3.38,0,.86-.2,1.55-.59,2.05-.4.5-.94.76-1.62.76-.54,0-1.21-.52-2-1.57-.86-.94-1.7-1.69-2.51-2.27-.81-.58-1.74-.86-2.78-.86-1.4,0-2.46.6-3.16,1.81-.7,1.21-1.05,3.12-1.05,5.75v4.37c0,.54.31.81.92.81h5.94c.29,0,.51.09.67.27.16.18.24.4.24.65,0,.32-.05.67-.13,1.05-.09.38-.21.69-.35.95-.18.29-.32.43-.43.43h-4.7c-.83,0-1.4.1-1.7.3-.31.2-.46.55-.46,1.05v13.23c0,.68.08,1.21.24,1.57.16.36.49.66.97.89.49.23,1.25.46,2.29.67.36.07.62.19.78.35s.24.39.24.67c0,.22-.09.42-.27.62-.18.2-.38.3-.59.3-1.22,0-2.54-.05-3.94-.16-1.8-.07-2.97-.11-3.51-.11-.58,0-1.55.04-2.92.11-1.08.11-2.18.16-3.29.16-.25,0-.5-.08-.73-.24Z"/>
    </g>
    <g class="cls-1">
      <path class="cls-2" d="m357.48,70.45c-1.8-.97-3.21-2.33-4.24-4.08-1.03-1.75-1.54-3.7-1.54-5.86,0-2.34.58-4.5,1.73-6.48,1.15-1.98,2.71-3.55,4.67-4.72,1.96-1.17,4.13-1.75,6.51-1.75,2.2,0,4.22.52,6.08,1.57,1.85,1.04,3.32,2.44,4.4,4.19s1.62,3.63,1.62,5.64c0,2.41-.5,4.6-1.51,6.56-1.01,1.96-2.51,3.52-4.51,4.67-2,1.15-4.42,1.73-7.26,1.73-2.16,0-4.14-.49-5.94-1.46Zm9.83-2.65c.79-1.33,1.19-3.85,1.19-7.56,0-2.99-.43-5.43-1.3-7.32-.86-1.89-2-2.83-3.4-2.83-.94,0-1.71.31-2.32.92-.61.61-1.04,1.58-1.27,2.89-.23,1.31-.35,3.07-.35,5.26,0,1.73.2,3.38.59,4.94.4,1.57.95,2.83,1.65,3.81.7.97,1.49,1.46,2.35,1.46,1.26,0,2.21-.52,2.86-1.57Z"/>
    </g>
  </g>
</svg>